# Blender v3.2.2 OBJ File: 'Laser_Cannon.blend'
# www.blender.org
mtllib Laser_Cannon.mtl
o Cube
v -1.000000 0.790000 -0.300000
v -1.000000 0.010000 -0.300000
v 1.000000 0.790000 -0.300000
v 1.000000 0.010000 -0.300000
v -1.000000 0.790000 0.300000
v -1.000000 0.010000 0.300000
v 1.000000 0.790000 0.300000
v 1.000000 0.010000 0.300000
v 0.037088 1.390099 0.074370
vt 0.625000 0.500000
vt 0.875000 0.500000
vt 0.875000 0.750000
vt 0.625000 0.750000
vt 0.375000 0.750000
vt 0.625000 1.000000
vt 0.375000 1.000000
vt 0.375000 0.000000
vt 0.625000 0.000000
vt 0.625000 0.250000
vt 0.375000 0.250000
vt 0.125000 0.500000
vt 0.375000 0.500000
vt 0.125000 0.750000
vn 0.0000 1.0000 0.0000
vn 1.0000 0.0000 0.0000
vn 0.0000 0.0000 1.0000
vn 0.0000 -1.0000 0.0000
vn -0.0000 0.0000 -1.0000
vn -1.0000 0.0000 0.0000
usemtl Material
s off
f 1/1/1 5/2/1 7/3/1 3/4/1
f 4/5/2 3/4/2 7/6/2 8/7/2
f 8/8/3 7/9/3 5/10/3 6/11/3
f 6/12/4 2/13/4 4/5/4 8/14/4
f 2/13/5 1/1/5 3/4/5 4/5/5
f 6/11/6 5/10/6 1/1/6 2/13/6
o Würfel
v 0.817199 0.785204 0.171315
v 0.817199 1.014796 0.171315
v -0.817199 0.785204 0.171315
v -0.817199 1.014796 0.171315
v 0.817199 0.785204 -0.171315
v 0.817199 1.014796 -0.171315
v -0.817199 0.785204 -0.171315
v -0.817199 1.014796 -0.171315
vt 0.375000 0.000000
vt 0.625000 0.000000
vt 0.625000 0.250000
vt 0.375000 0.250000
vt 0.625000 0.500000
vt 0.375000 0.500000
vt 0.625000 0.750000
vt 0.375000 0.750000
vt 0.625000 1.000000
vt 0.375000 1.000000
vt 0.125000 0.500000
vt 0.125000 0.750000
vt 0.875000 0.500000
vt 0.875000 0.750000
vn 0.0000 0.0000 1.0000
vn -1.0000 0.0000 0.0000
vn -0.0000 0.0000 -1.0000
vn 1.0000 0.0000 0.0000
vn 0.0000 -1.0000 0.0000
vn 0.0000 1.0000 0.0000
usemtl None
s off
f 10/15/7 11/16/7 13/17/7 12/18/7
f 12/18/8 13/17/8 17/19/8 16/20/8
f 16/20/9 17/19/9 15/21/9 14/22/9
f 14/22/10 15/21/10 11/23/10 10/24/10
f 12/25/11 16/20/11 14/22/11 10/26/11
f 17/19/12 13/27/12 11/28/12 15/21/12
o Würfel.001
v 0.225630 0.996767 0.130945
v 0.225630 1.276534 0.130945
v -0.225630 0.996767 0.130945
v -0.225630 1.276534 0.130945
v 0.225630 0.996767 -0.130945
v 0.225630 1.276534 -0.130945
v -0.225630 0.996767 -0.130945
v -0.225630 1.276534 -0.130945
vt 0.375000 0.000000
vt 0.625000 0.000000
vt 0.625000 0.250000
vt 0.375000 0.250000
vt 0.625000 0.500000
vt 0.375000 0.500000
vt 0.625000 0.750000
vt 0.375000 0.750000
vt 0.625000 1.000000
vt 0.375000 1.000000
vt 0.125000 0.500000
vt 0.125000 0.750000
vt 0.875000 0.500000
vt 0.875000 0.750000
vn 0.0000 0.0000 1.0000
vn -1.0000 0.0000 0.0000
vn -0.0000 0.0000 -1.0000
vn 1.0000 0.0000 0.0000
vn 0.0000 -1.0000 0.0000
vn 0.0000 1.0000 0.0000
usemtl None
s off
f 18/29/13 19/30/13 21/31/13 20/32/13
f 20/32/14 21/31/14 25/33/14 24/34/14
f 24/34/15 25/33/15 23/35/15 22/36/15
f 22/36/16 23/35/16 19/37/16 18/38/16
f 20/39/17 24/34/17 22/36/17 18/40/17
f 25/33/18 21/41/18 19/42/18 23/35/18
o Würfel.002
v 0.081032 1.262796 0.081992
v 0.081032 1.563388 0.081992
v -0.081032 1.262796 0.081992
v -0.081032 1.563388 0.081992
v 0.081032 1.262796 -0.081992
v 0.081032 1.563388 -0.081992
v -0.081032 1.262796 -0.081992
v -0.081032 1.563388 -0.081992
vt 0.375000 0.000000
vt 0.625000 0.000000
vt 0.625000 0.250000
vt 0.375000 0.250000
vt 0.625000 0.500000
vt 0.375000 0.500000
vt 0.625000 0.750000
vt 0.375000 0.750000
vt 0.625000 1.000000
vt 0.375000 1.000000
vt 0.125000 0.500000
vt 0.125000 0.750000
vt 0.875000 0.500000
vt 0.875000 0.750000
vn 0.0000 0.0000 1.0000
vn -1.0000 0.0000 0.0000
vn 0.0000 0.0000 -1.0000
vn 1.0000 0.0000 0.0000
vn 0.0000 -1.0000 0.0000
vn 0.0000 1.0000 0.0000
usemtl None
s off
f 26/43/19 27/44/19 29/45/19 28/46/19
f 28/46/20 29/45/20 33/47/20 32/48/20
f 32/48/21 33/47/21 31/49/21 30/50/21
f 30/50/22 31/49/22 27/51/22 26/52/22
f 28/53/23 32/48/23 30/50/23 26/54/23
f 33/47/24 29/55/24 27/56/24 31/49/24
